<svg width="27" height="20" viewBox="0 0 27 20" fill="none" xmlns="http://www.w3.org/2000/svg">
<path d="M26.9804 1.93562C26.9804 1.90477 27.0017 1.87474 27.0002 1.84424L18.7607 9.78344L26.9904 17.469C26.9952 17.4141 26.9804 17.3588 26.9804 17.3027V1.93562V1.93562Z" fill="white"/>
<path d="M17.5022 11.0054L14.1386 14.2416C13.9684 14.4053 13.7486 14.4875 13.5286 14.4875C13.3133 14.4875 13.0979 14.4089 12.9288 14.2513L9.57439 11.1255L1.29102 19.1097C1.49243 19.1821 1.70862 19.2383 1.93502 19.2383H25.1223C25.4585 19.2383 25.7739 19.1359 26.048 18.9832L17.5022 11.0054Z" fill="white"/>
<path d="M13.5192 12.3959L26.0938 0.282822C25.8091 0.113551 25.4777 0 25.1225 0H1.9352C1.47267 0 1.04885 0.179594 0.71875 0.453501L13.5192 12.3959Z" fill="white"/>
<path d="M0 2.23047V17.3023C0 17.4753 0.0397664 17.6421 0.0829346 17.8015L8.26355 9.9238L0 2.23047Z" fill="white"/>
</svg>
