<svg width="26" height="26" viewBox="0 0 26 26" fill="none" xmlns="http://www.w3.org/2000/svg">
<path d="M18.8248 0H7.17491C3.21867 0 0 3.21882 0 7.17506V18.8249C0 22.7813 3.21867 26 7.17491 26H18.8248C22.7813 26 26 22.7812 26 18.8249V7.17506C26.0002 3.21882 22.7813 0 18.8248 0ZM23.6933 18.8249C23.6933 21.5093 21.5093 23.6932 18.8249 23.6932H7.17491C4.49066 23.6933 2.30685 21.5093 2.30685 18.8249V7.17506C2.30685 4.49081 4.49066 2.30685 7.17491 2.30685H18.8248C21.5092 2.30685 23.6932 4.49081 23.6932 7.17506V18.8249H23.6933Z" fill="white"/>
<path d="M13.0003 6.30078C9.30614 6.30078 6.30078 9.30614 6.30078 13.0003C6.30078 16.6944 9.30614 19.6996 13.0003 19.6996C16.6945 19.6996 19.6999 16.6944 19.6999 13.0003C19.6999 9.30614 16.6945 6.30078 13.0003 6.30078ZM13.0003 17.3926C10.5783 17.3926 8.60763 15.4222 8.60763 13.0002C8.60763 10.578 10.5781 8.60747 13.0003 8.60747C15.4225 8.60747 17.393 10.578 17.393 13.0002C17.393 15.4222 15.4224 17.3926 13.0003 17.3926Z" fill="white"/>
<path d="M19.9798 4.34473C19.5353 4.34473 19.0987 4.52466 18.7848 4.83993C18.4694 5.15366 18.2881 5.59042 18.2881 6.03641C18.2881 6.48102 18.4696 6.91763 18.7848 7.2329C19.0986 7.54663 19.5353 7.7281 19.9798 7.7281C20.4258 7.7281 20.861 7.54663 21.1763 7.2329C21.4915 6.91763 21.6715 6.48087 21.6715 6.03641C21.6715 5.59042 21.4915 5.15366 21.1763 4.83993C20.8625 4.52466 20.4258 4.34473 19.9798 4.34473Z" fill="white"/>
</svg>
