<svg width="21" height="21" viewBox="0 0 21 21" fill="none" xmlns="http://www.w3.org/2000/svg">
<path d="M3.03303 1.06641C1.58939 1.06641 0.645508 2.01437 0.645508 3.26034C0.645508 4.47878 1.56127 5.45379 2.97763 5.45379H3.00503C4.47689 5.45379 5.39293 4.47878 5.39293 3.26034C5.36541 2.01437 4.47689 1.06641 3.03303 1.06641Z" fill="white"/>
<path d="M0.895508 7.1875H5.11586V19.8846H0.895508V7.1875Z" fill="white"/>
<path d="M15.4751 6.88916C13.1983 6.88916 11.6716 9.02854 11.6716 9.02854V7.18714H7.45117V19.8843H11.6714V12.7937C11.6714 12.4141 11.6989 12.0351 11.8104 11.7637C12.1155 11.0057 12.8098 10.2204 13.9758 10.2204C15.5029 10.2204 16.1137 11.3848 16.1137 13.0917V19.8843H20.3337V12.604C20.3337 8.70395 18.2515 6.88916 15.4751 6.88916Z" fill="white"/>
</svg>
