<svg width="27" height="27" viewBox="0 0 27 27" fill="none" xmlns="http://www.w3.org/2000/svg">
<path d="M22.4624 4.69447C20.4012 1.71128 17.1345 0 13.5005 0C9.8665 0 6.59976 1.71128 4.53853 4.69447C2.48743 7.66257 2.01382 11.4203 3.26911 14.7402C3.60487 15.6468 4.1386 16.5276 4.85167 17.353L12.7818 26.6677C12.9611 26.8785 13.2239 27 13.5005 27C13.7771 27 14.0398 26.8786 14.2192 26.6677L22.1471 17.3555C22.8633 16.5254 23.3963 15.6455 23.7293 14.7462C24.9871 11.4203 24.5135 7.66257 22.4624 4.69447ZM21.9614 14.085C21.7047 14.7789 21.2855 15.4649 20.7162 16.1247C20.7146 16.1263 20.7131 16.1279 20.7118 16.1298L13.5005 24.5999L6.28473 16.1245C5.71578 15.4652 5.29659 14.7792 5.0373 14.0787C3.99917 11.3331 4.39315 8.22619 6.09151 5.76819C7.7952 3.30233 10.4958 1.8881 13.5005 1.8881C16.5051 1.8881 19.2054 3.30228 20.9091 5.76819C22.6078 8.22619 23.0021 11.3331 21.9614 14.085Z" fill="white"/>
<path d="M13.5006 5.60156C10.5856 5.60156 8.21387 7.97303 8.21387 10.8883C8.21387 13.8035 10.5853 16.175 13.5006 16.175C16.4159 16.175 18.7873 13.8035 18.7873 10.8883C18.7873 7.97334 16.4155 5.60156 13.5006 5.60156ZM13.5006 14.2869C11.6266 14.2869 10.102 12.7622 10.102 10.8882C10.102 9.01427 11.6266 7.48961 13.5006 7.48961C15.3746 7.48961 16.8992 9.01427 16.8992 10.8882C16.8992 12.7622 15.3746 14.2869 13.5006 14.2869Z" fill="white"/>
</svg>
