<svg xmlns="http://www.w3.org/2000/svg" width="827" height="606" viewBox="0 0 827 606"><g><g><path fill="#fa7728" d="M224.69 140.04s126.21 37.993 189.873-53.635c0 0 93.82-145.266 266.939-58.107 0 0 176.47 102.803 140.73 318.466 0 0-11.17 139.678-266.94 119.565 0 0-111.69 10.056-158.6 79.337 0 0-141.843 106.708-249.88 36.33a151.886 151.886 0 0 1-2.539-1.69s-29.319-21.242-41.787-57.95a106.05 106.05 0 0 1-1.772-5.744c-11.169-40.227-22.338-127.386-90.469-204.488 0 0-64.78-175.436 141.847-175.436z"/></g></g></svg>