<svg xmlns="http://www.w3.org/2000/svg" width="787" height="650" viewBox="0 0 787 650"><defs><linearGradient id="u2n3a" x1="786.71" x2=".71" y1="533.78" y2="116.6" gradientUnits="userSpaceOnUse"><stop offset="0" stop-color="#fbaa17"/><stop offset="1" stop-color="#fa6321"/></linearGradient></defs><g><g><path fill="#fa7728" d="M503.121 616.802s23.598-71.75 82.662-22.57c0 0 121.983 61.263 157.203-35.863 0 0 25.187-23.588-38.61-63.041 0 0-109.707-88.97-47.528-189.099 0 0 47.723-95.134 100.688-117.477 0 0 86.808-103.783-41.472-174.846 0 0-67.15-45.415-215.089 32.72 0 0-94.827 33.731-139.823 6.069 0 0-121.236-45.987-171.88 73.945 0 0-13.499 84.119-90.331 91.244 0 0-187.956 99.08-43.887 251.911 0 0 31.66 55.573 231.588 69.842 199.928 14.269 4.863 2.365 4.863 2.365s38.471-11.834 80.025 55.046c0 0 61.883 103.711 131.591 19.754z"/><path fill="url(#u2n3a)" d="M503.121 616.802s23.598-71.75 82.662-22.57c0 0 121.983 61.263 157.203-35.863 0 0 25.187-23.588-38.61-63.041 0 0-109.707-88.97-47.528-189.099 0 0 47.723-95.134 100.688-117.477 0 0 86.808-103.783-41.472-174.846 0 0-67.15-45.415-215.089 32.72 0 0-94.827 33.731-139.823 6.069 0 0-121.236-45.987-171.88 73.945 0 0-13.499 84.119-90.331 91.244 0 0-187.956 99.08-43.887 251.911 0 0 31.66 55.573 231.588 69.842 199.928 14.269 4.863 2.365 4.863 2.365s38.471-11.834 80.025 55.046c0 0 61.883 103.711 131.591 19.754z"/></g></g></svg>