<svg xmlns="http://www.w3.org/2000/svg" width="909" height="666" viewBox="0 0 909 666"><defs><linearGradient id="wq7ca" x1="908" x2="0" y1="574.51" y2="92.01" gradientUnits="userSpaceOnUse"><stop offset="0" stop-opacity=".46"/><stop offset="1" stop-color="#fff" stop-opacity=".46"/></linearGradient></defs><g><g><path fill="#fdbc2d" d="M246.244 153.918s138.703 41.753 208.668-58.946c0 0 103.106-159.644 293.361-63.858 0 0 193.938 112.98 154.66 349.99 0 0-12.275 153.503-293.362 131.399 0 0-122.746 11.052-174.299 87.19 0 0-155.884 117.27-274.615 39.926a163.339 163.339 0 0 1-2.79-1.857s-32.22-23.344-45.923-63.685c-.7-2.06-1.351-4.165-1.947-6.313-12.275-44.21-24.55-139.996-99.424-224.73 0 0-71.193-192.8 155.887-192.8z"/><path fill="url(#wq7ca)" d="M246.244 153.918s138.703 41.753 208.668-58.946c0 0 103.106-159.644 293.361-63.858 0 0 193.938 112.98 154.66 349.99 0 0-12.275 153.503-293.362 131.399 0 0-122.746 11.052-174.299 87.19 0 0-155.884 117.27-274.615 39.926a163.339 163.339 0 0 1-2.79-1.857s-32.22-23.344-45.923-63.685c-.7-2.06-1.351-4.165-1.947-6.313-12.275-44.21-24.55-139.996-99.424-224.73 0 0-71.193-192.8 155.887-192.8z"/></g></g></svg>